<svg xmlns="http://www.w3.org/2000/svg" viewBox="0 0 959.29 992.37"><defs><style>.cls-2,.cls-3{fill:#fff}.cls-3{stroke:#fff;stroke-miterlimit:10}</style></defs><g id="Ebene_2" data-name="Ebene 2"><g id="Ebene_1-2" data-name="Ebene 1"><path d="M201.51 241.89a191.8 191.8 0 01-20.6-14.45q-11.73-9.21-29.14-23.83-11.19-9.62-24.41-20.15-10.92-8.82-15.08-10.24a5.71 5.71 0 011.4-6.29q4.21-4.32 13.14 4.39 10.53 10.29 33.58 27.25T192.89 224l-3.89-5.2q-7.72-10.19-14.78-19.06t-15.72-18.65q-9.48-11.1-19.61-21l1.94-5.23a6.46 6.46 0 013.72-2.05 4.16 4.16 0 013.62 1.29l1.08 1.06a196.53 196.53 0 0120.05 12.58q10.38 7.37 23.59 18.16 10.11 8.3 19.23 15.1-15.6-20.25-42.09-46.12a84 84 0 01-9.21-11.11 99.19 99.19 0 00-9.21-10.77 10.27 10.27 0 01-2.69-1.84q-3.25-3.17.71-7.22a5.39 5.39 0 013.32-1.78 4 4 0 013.22 1.3l2 2a18.94 18.94 0 013.12 3.84l.67.66a56 56 0 0010.72 13.89l9.86 9.64q8.52 8.31 23.42 26.84 14.38 18.25 22.48 26.18l2.44 2.37a25.07 25.07 0 014.61 5.83q1.9 3.45-1.13 6.55a5.58 5.58 0 01-4.65 1.93 7.7 7.7 0 01-4.7-2.35q-10.95-10.69-30.62-25.42-9-6.44-18.32-12.87l-16.3-11.7a78.91 78.91 0 007.18 8.07q7.56 7.39 18.94 20.61a325.78 325.78 0 0120.89 27q10.59 15.38 7.43 18.61-2.61 2.65-12.7-3.25zm46.08-42.31q-2.7-3.65 2-7.13l1.67-1.23 1.63-1a2.22 2.22 0 001.11-2 7.19 7.19 0 00-1.57-3.07c-1.28-1.72-3.36-4.33-6.27-7.82q-3.15-3.3-10.73-12.27-18.56-22.2-27.33-34-3.15-4.25-5.59-7.86l-5.58-7.85a77.35 77.35 0 00-6.64-8 20 20 0 01-3 3.19q-3.64 2.7-6.34-.94c-.9-1.21-.93-2.84-.08-4.87a20.71 20.71 0 014.3-6.25 70.11 70.11 0 019.88-9.2 5.28 5.28 0 014.07-1 5.08 5.08 0 013.48 2 5.61 5.61 0 011.15 3.62 3.86 3.86 0 01-1.61 3.07 8 8 0 01-1.63 1l-1.21.9a3.78 3.78 0 00-1.7 2.31 4.45 4.45 0 001.18 3q10.91 14.73 34.65 43 4.35 5.24 13.13 15.19a166.55 166.55 0 0111.3 13.63l4.27 5.77a25.6 25.6 0 012.92-2.4q6.38-4.73 10.31.59l.68.91-1.89 5.39-.93.81c-.52.46-1.53 1.25-3.05 2.38q-4.64 3.9-6 4.91-13.17 9.77-16.58 5.22zm59.85-39.21a103 103 0 01-14.95-14.8l-4.28-5q-17.93-20.92-21.08-23.49l-2 1.1q2.66 4.79 4.7 8.84l5.06 9.07q12.31 22.11 22.34 32.74l.67 5.47-4.62 2.57-3.53-1.28-6-11.15q-8.26-14.85-26.58-44.22Q238 88.81 230.79 75.94q-4.41-7.92 1-11 8.91-5 17.17-3.52t12.87 9.7l6.43 11.55a26.48 26.48 0 012.34 6.16 30.58 30.58 0 011.09 6.21l.17 7.68.12 6.42 3 3.5 8.83 10.43q9.39 11.43 15.95 18.15a92.12 92.12 0 0013.27 11.41l2.09 1.43a14.72 14.72 0 014.6 4.36 5.15 5.15 0 01.61 3.44 3.67 3.67 0 01-1.95 2.71q-3.56 2.08-10.94-4.2zm-45.51-64a58.3 58.3 0 00-5.85-16.53 40.92 40.92 0 00-6.84-9.16 8.27 8.27 0 00-10.45-1.31l.12 1 .5 1.67 11.18 19.28q5.1 8.4 10.71 18.46 2.63-3.85.63-13.45zm98.79 47.75a7.21 7.21 0 01-4-4l1.12-3.66a14 14 0 013.66-.26 24 24 0 004.33-.65 8.12 8.12 0 005.07-4.59 18.85 18.85 0 001.72-8.75 62.77 62.77 0 00-2.1-16.29q-3.42-12-14.84-23.06l-3-2.88q-5.16-5-8.87-9.05a65.09 65.09 0 01-6.9-9 49.71 49.71 0 01-6.23-13.54 45 45 0 01-1.15-17.75 17.93 17.93 0 013.23-8.29 12.44 12.44 0 016.79-4.79 10.47 10.47 0 016.68.35 6.36 6.36 0 014.24 4.19A3.06 3.06 0 01350 25a5.35 5.35 0 01-2.82 1.79 7.62 7.62 0 01-4.13 0q-3.94 1.32-4.33 8.9a38.26 38.26 0 001 11.1A37.85 37.85 0 00344.36 57a47.18 47.18 0 006.95 8.52l6.07 6.12 9.78 10.17a54.73 54.73 0 017.46 10.64 62.69 62.69 0 015.44 13.18 47.75 47.75 0 01.94 22.52 21.71 21.71 0 01-4.84 10.22 18.83 18.83 0 01-9.38 6l.16.54a12.38 12.38 0 01-6.22-.79zm35.71-16.01q-.71-4.47 5.07-5.4l2.05-.33 1.9-.11a2.22 2.22 0 001.9-1.26 7.21 7.21 0 000-3.45c-.33-2.11-1-5.39-1.95-9.82q-1.28-4.39-3.86-15.83-6.22-28.27-8.54-42.82c-.56-3.48-1-6.66-1.34-9.54L390.33 30a77.63 77.63 0 00-2.2-10.17 21 21 0 01-4.13 1.44c-3 .48-4.71-.78-5.19-3.76-.24-1.5.49-3 2.18-4.37a20.75 20.75 0 016.7-3.55 68.58 68.58 0 0113-3.61 5.31 5.31 0 014.08 1 5.09 5.09 0 012.16 3.39 5.57 5.57 0 01-.64 3.74 3.86 3.86 0 01-2.84 2 7.68 7.68 0 01-1.9.11l-1.49.24a3.76 3.76 0 00-2.57 1.27 4.38 4.38 0 00-.35 3.21Q400 39 408 75q1.44 6.65 4.65 19.53a167.09 167.09 0 013.73 17.38l1.13 7.09a27.1 27.1 0 013.7-.78q7.83-1.26 8.88 5.28l.17 1.11-4.15 3.92c-.13 0-.53.12-1.2.29s-1.94.4-3.81.7q-5.91 1.33-7.59 1.59-16.17 2.59-17.08-3zm92.47-1.48a8.71 8.71 0 01-1.62-4.28l-1.07-3.61v-.94q.12-6.24-12.14-42.74t-19.29-54L453 116l.73 1.34c.11.25.36.7.73 1.33a3.73 3.73 0 01.53 1.9 5.81 5.81 0 01-6 5.74q-6-.1-5.82-11.63l.42-32.3q.08-14.53.42-32.48.1-6 .9-17.55.78-11.89.89-17.55A16.53 16.53 0 01452.91 1v1.13a6.9 6.9 0 011.52-.35q4.33.09 10.67 15.32a260.22 260.22 0 019.06 25.67q4 13.49 10.51 38.36l1.75 6.87q4.05 15.38 6.19 22 4.54-40.53 5.58-95.86l.05-2.45a14.82 14.82 0 01-.14-2.46q.11-5.67 4.64-5.58a4.62 4.62 0 014 2.15 9.21 9.21 0 011.31 5.32l-.26 14.16q-.93 29.07-3.46 63t-5.25 38.25a37.63 37.63 0 01-6.83 1.38 4.37 4.37 0 01-3.35-1.28zm41.66-18.42l7.13-29q3.16-12.84 6.89-28.84 1.36-5.89 3.13-18.47 2.2-13.65 2.89-16.59a5.73 5.73 0 013-3.76 6.7 6.7 0 014.85-.82 29.38 29.38 0 0111.75 5.74A34.41 34.41 0 01578.92 27a59.66 59.66 0 015.69 41.46c-.38 1.6-.78 3.06-1.22 4.38l-1.33 4.92-2.35 10.12a189.77 189.77 0 01-5.06 18.41 60 60 0 01-8 15.39A43.54 43.54 0 01552.74 133a51.85 51.85 0 01-9.74 3.5l-13.24-3.08q-4.76-1.11.8-25.21zm16.72 17.36a17.71 17.71 0 006.55-4 38.9 38.9 0 005.14-6.66 57.66 57.66 0 004.33-8.21 112.83 112.83 0 006-16.45q.71-2.16 1.68-6.4 12.92-55.56-8-62.95a128 128 0 00-5.74 18.83q-2.68 11.6-7.93 40.82-4.66 25.88-8.16 41l-1 4.41a13 13 0 007.13-.39zM614.8 161a5.88 5.88 0 010-4.69l2.27-4.35 1.74-3.36a35.42 35.42 0 011.65-3.6q1.83-3.53 5.07-11l5.24-10.91q4.26-8.2 13.2-24.21 8.24-14.24 13.38-24.13c.81-1.56 1.86-4 3.15-7.3s2.4-5.85 3.15-7.3q6.18-11.91 13.22-8.25a51.15 51.15 0 0111.69 8.84q6.16 6 4.6 9a4.89 4.89 0 01-3 2.36 11.73 11.73 0 01-4.61.48 76.78 76.78 0 00-11-10q-1.14 2.61-3.57 7.3-3.48 6.7-6.44 12-4.68 7.78-6.76 11.81l-.89 2.94 2.77 1.23a31 31 0 013.34 1.55q8 4.19 5.61 8.87a4.4 4.4 0 01-3.12 2.32 6.55 6.55 0 01-4.51-.74 28.41 28.41 0 01-4.52-2.78l-4.19-2.17q-1.93 4.53-6.28 12.91t-8 15q-5.81 10-8.42 15-4.87 9.39-4.54 9.56l5.62 2.7q2.94 1.32 7 3.4 6.38 3.32 4.28 7.33a4.46 4.46 0 01-4 2.52 11 11 0 01-5.77-1.4L618 164.54a6.66 6.66 0 01-3.2-3.54zm37.3 12.7q2.58-3.73 7.4-.41l1.71 1.18 1.44 1.23a2.21 2.21 0 002.25.4 7.12 7.12 0 002.4-2.48q1.82-2.64 5.37-8.45 2.12-4 8.14-14.12 15-24.75 23.38-36.87 3-4.35 5.63-7.82l5.63-7.82a78.1 78.1 0 005.43-8.88 20.63 20.63 0 01-4-1.84q-3.74-2.58-1.16-6.31 1.29-1.86 4.59-1.65a20.9 20.9 0 017.3 2 69.07 69.07 0 0111.89 6.38 5.26 5.26 0 012.28 3.52 5.1 5.1 0 01-.77 3.94A5.58 5.58 0 01738 98a3.86 3.86 0 01-3.42-.53 7.63 7.63 0 01-1.45-1.23l-1.25-.86a3.72 3.72 0 00-2.73-.85 4.39 4.39 0 00-2.47 2.08q-10.41 15.07-29.46 46.68-3.55 5.8-10.13 17.33a165.42 165.42 0 01-9.31 15.15l-4.08 5.91a26.18 26.18 0 013.22 2q6.52 4.5 2.77 9.95l-.64.93h-5.71c-.1-.07-.46-.28-1.06-.62s-1.69-1.05-3.24-2.12c-3.47-2.08-5.66-3.44-6.59-4.09q-13.57-9.37-10.35-14.03zm68.28 62.71a8.7 8.7 0 011.75-4.23l1.7-3.35.27-.27.39-.41q4.37-4.46 20.46-39.43t23-52.55l-66.44 67.93-.38 1.48c-.09.26-.21.75-.38 1.47a3.68 3.68 0 01-.92 1.75 5.81 5.81 0 01-8.28.09q-4.32-4.23 3.73-12.47l22.45-23.22q10-10.53 22.57-23.36 4.23-4.32 12.69-12.17 8.71-8.11 12.68-12.16a16.53 16.53 0 0114.64-5.24l-.8.81a6.6 6.6 0 011.35.78q3.1 3-2.73 18.47a259 259 0 01-11 24.9q-6.33 12.56-18.63 35.14l-3.41 6.18q-7.59 14-10.58 20.29 31.08-26.4 69.77-66l1.72-1.76a15.36 15.36 0 011.58-1.89q4-4 7.2-.88a4.61 4.61 0 011.45 4.33 9.13 9.13 0 01-2.68 4.77l-9.9 10.13q-20.65 20.57-45.73 43.55t-30 24.25a39.22 39.22 0 01-5.92-3.67 4.43 4.43 0 01-1.62-3.26zM46.65 298.5q4.53 1.74 2.27 7.59l-.8 2.08-.91 1.83a2.38 2.38 0 00.14 2.44 7.79 7.79 0 003.18 1.88q3.21 1.23 10.15 3.47 4.74 1.17 16.74 4.92 29.52 9.42 44.24 15.09 5.28 2 9.55 3.89l9.55 3.89a84.22 84.22 0 0010.6 3.43 21.93 21.93 0 01.91-4.63q1.74-4.53 6.28-2.78 2.25.87 2.87 4.35a22.52 22.52 0 01-.31 8.12 74.42 74.42 0 01-3.65 14 5.65 5.65 0 01-3.09 3.25 5.43 5.43 0 01-4.3.18 5.9 5.9 0 01-3.11-2.6 4.12 4.12 0 01-.31-3.7 8.42 8.42 0 01.91-1.81l.58-1.51a4 4 0 00.21-3.06 4.69 4.69 0 00-2.79-2q-18.3-7.05-56-19-6.95-2.23-20.58-6.19a176.42 176.42 0 01-18.1-5.88L43.74 323a28.69 28.69 0 01-1.27 3.84q-3 7.93-9.65 5.38l-1.14-.43-1.39-5.95c.05-.13.18-.55.38-1.27s.67-2 1.39-3.9c1.3-4.13 2.17-6.75 2.61-7.88Q41 296.32 46.65 298.5zM8 412.05a9.22 9.22 0 014.81-.91l4-.45.4.07.59.12q6.56 1.29 47.32-4.83t60.53-10.28L25.8 376.19l-1.55.52c-.29.08-.81.26-1.54.53a4 4 0 01-2.1.2 6.21 6.21 0 01-4.95-7.36q1.24-6.34 13.35-4l34 6.46q15.32 2.79 34.17 6.49 6.34 1.24 18.33 4.22 12.39 3 18.34 4.21a17.7 17.7 0 0113.28 10l-1.19-.23A6.13 6.13 0 01146 399q-.88 4.56-18.13 8.39a278.44 278.44 0 01-28.75 4.77q-15 1.69-42.4 3.94l-7.53.58q-17 1.41-24.38 2.43 41.88 12.35 100 23.74l2.58.51a14.89 14.89 0 012.62.31q6 1.15 5 5.93a4.94 4.94 0 01-3 3.83 9.83 9.83 0 01-5.85.4l-14.88-2.92q-30.48-6.39-65.8-15.38T6.14 422.82a40.32 40.32 0 01-.14-7.45 4.68 4.68 0 012-3.32zm-3.94 72.46l7.89-.08q3.44-.15 7.68-.07l6.87.31q2.23-.57 44.33-2.32t54-2q.6-11.72 2.67-14.92a4.54 4.54 0 013.67-2.17c1.08 0 2.05.74 2.9 2.17a8.25 8.25 0 011.25 4.37q-.09 5.66-1 13.74a106.75 106.75 0 00-1.24 13.73v3.23q-.11 6.27-5 6.19a4.7 4.7 0 01-3.91-2.08 7.56 7.56 0 01-1.44-4.68 32.86 32.86 0 01.69-5.24l.87-4-1-.21-1-.22q-18-.3-57.48 2.51-37.05 2.64-57.46 2.31a5.49 5.49 0 01-4.22-2.19 7.12 7.12 0 01-1.74-4.78zm-2.23 56.7A6.31 6.31 0 016 538.4l5.22-.58 4-.45a38.53 38.53 0 014.2-.68q4.21-.47 12.79-2L45 532.81q9.84-1.11 29.4-2.69 17.6-1.12 29.47-2.48 2.8-.32 8.37-1.55c3.84-.84 6.63-1.35 8.37-1.55q14.27-1.59 15.21 6.84a54.81 54.81 0 01-.89 15.67q-1.63 9-5.24 9.44a5.21 5.21 0 01-3.91-1.3 12.64 12.64 0 01-3.18-3.81 81.57 81.57 0 002.31-15.72c-2 .35-4.87.75-8.62 1.17q-8 .9-14.49 1.42-9.7.48-14.53 1l-3.15 1 .56 3.19a34.49 34.49 0 01.65 4q1.08 9.65-4.54 10.27a4.66 4.66 0 01-3.92-1.39 7 7 0 01-2-4.45 30.38 30.38 0 01-.23-5.67l-.56-5q-5.19 1-15.23 2.12t-18.11 1.82q-12.32.78-18.35 1.45-11.25 1.26-11.21 1.66l.95 6.61q.59 3.39 1.12 8.22.85 7.63-4 8.17a4.8 4.8 0 01-4.61-2 11.76 11.76 0 01-2.19-5.95l-1.9-17.16a7.08 7.08 0 011.28-4.93zm15.32 81.28a24.89 24.89 0 013.31-9.06 27.52 27.52 0 016.74-6.85 58.23 58.23 0 019.3-5.86 69.5 69.5 0 0110.32-4.47c4.58-1.65 8.54-3 11.89-4L70 589.14l7.84-2.14q11.31-3.06 18.65-4.62a112.29 112.29 0 0119.23-2.47 45.28 45.28 0 0117.05 1.88 22 22 0 0112.29 9 23.27 23.27 0 013.58 7.82q2.27 8.4-2.61 9.72a4.81 4.81 0 01-4.31-.83 7.15 7.15 0 01-2.65-4 11.17 11.17 0 01-.38-2.2 8.59 8.59 0 00-.34-2q-.89-3.32-5.09-4.91a32.43 32.43 0 00-10.92-1.65 162.43 162.43 0 00-27.51 2.83q-13.48 2.8-19.93 4.54-6.65 1.8-18 5.49a84.94 84.94 0 00-17.85 8.39 29.08 29.08 0 00-6.64 5.25 17.28 17.28 0 00-3.49 6.07 12.86 12.86 0 00-.3 7.42q2.54 9.36 33.76.93l9-2.43a12.75 12.75 0 00-.63-4.65l-.47-1.76-.58-2.14q-1.84-6.84 2.64-8a5.23 5.23 0 014.7.72 7.78 7.78 0 012.76 4.39l-.2.05.74 2.73q4.74 17.58-1.3 19.21a52.23 52.23 0 01-7.29.92 33.09 33.09 0 00-7.35.73q-3.31.9-10.19 3.38L44 650q-9.36 2.52-16.5-2.56A25.11 25.11 0 0117.79 633a24.58 24.58 0 01-.64-10.51zM54.75 710a109.55 109.55 0 0117.18-14.58l5.69-4.11q24-17.19 27-20.32l-1-2.21q-5.35 2.4-9.86 4.2l-10.14 4.56q-24.73 11.08-37 20.8l-5.89.21-2.32-5.17 1.69-3.64 12.45-5.36q16.6-7.45 49.61-24.26 35.31-17.62 49.7-24.07 8.87-4 11.59 2.11 4.47 10 2.16 18.64t-11.51 12.86l-12.92 5.8a28.27 28.27 0 01-6.77 1.93 32.54 32.54 0 01-6.72.58l-8.22-.52-6.86-.47-4 2.91-11.94 8.46q-13.05 9-20.82 15.33a98.28 98.28 0 00-13.4 13.1l-1.72 2.1a15.7 15.7 0 01-5.08 4.5 5.52 5.52 0 01-3.72.34 3.93 3.93 0 01-2.71-2.33q-1.82-4.06 5.53-11.39zm72.52-42.63a62.68 62.68 0 0018.16-4.71 44.4 44.4 0 0010.41-6.45 8.88 8.88 0 002.36-11h-1.09l-1.82.38-21.61 10.14q-9.42 4.66-20.68 9.72 3.85 3.2 14.27 1.96zm-39.5 113.87q0-2.64 3.23-4.71 5.1-3.27 16.28-12.82l3.14-3-8.25-18.49q-4.56 1.49-17.68 7.24c-6 2.88-10.39 4.17-13.14 3.85a4.85 4.85 0 01-3.72-2.42 7.31 7.31 0 01-1.12-4.57 4.5 4.5 0 012.06-3.71l1.07-.21.79-.27a901.08 901.08 0 0097.24-38.25 27.29 27.29 0 012.4-1.3c1.15-.58 2.79-1.47 4.9-2.66q6.63-3.53 10.76-5.33a15.63 15.63 0 016.87-1.59l3.71 5.79a8.71 8.71 0 011.51 4.8 4.23 4.23 0 01-2.06 3.72q-12.94 8.28-36.19 28.21-24 20.21-34.6 27a47.29 47.29 0 00-4.73 4.24 38.06 38.06 0 01-4.57 4.12c-.79.51-3.84 3.26-9.12 8.24q-7.2 6.78-9.58 8.3l-.17.11c-2.5 1.6-4.67 1.7-6.51.32-1.68-2.67-2.51-4.85-2.52-6.61zm34-30.16q15.31-9.83 37.42-27.81l16.61-13q-44.7 18.3-66.88 28.66-.06 3.65 6.87 16.73a38.66 38.66 0 015.97-4.58zm.3 68.72l5.85-5.29q2.47-2.4 5.7-5.16L139 805q1.29-1.9 31.63-31.14t39.13-37.31q-7.33-9.15-7.9-12.93a4.55 4.55 0 011.31-4.06c.82-.7 2-.8 3.61-.3a8.25 8.25 0 013.83 2.45q3.67 4.29 8.34 11a107.17 107.17 0 008.18 11.09l1.06 1.23 1.05 1.23q4.08 4.75.4 7.91a4.71 4.71 0 01-4.31 1 7.61 7.61 0 01-4.18-2.54 33.22 33.22 0 01-3-4.39l-2-3.6-.9.51-.9.5q-13.67 11.73-41.34 40-26 26.55-41.47 39.85a5.46 5.46 0 01-4.61 1.15 7.09 7.09 0 01-4.47-2.42zm31.68 30.07q3.25-3.58 7.9.63l1.64 1.5 1.36 1.51a2.36 2.36 0 002.33.75 7.77 7.77 0 002.89-2.28q2.32-2.55 6.92-8.2 2.82-4 10.66-13.81 19.49-24.09 30.1-35.76 3.81-4.19 7.1-7.49l7.09-7.49a85.18 85.18 0 007-8.63 22.34 22.34 0 01-4-2.53q-3.58-3.27-.32-6.86c1.09-1.19 2.79-1.56 5.1-1.09a22.4 22.4 0 017.46 3.22 75 75 0 0111.7 8.47 5.71 5.71 0 011.91 4.07 5.44 5.44 0 01-1.39 4.07 5.9 5.9 0 01-3.56 2 4.12 4.12 0 01-3.55-1.06 8.13 8.13 0 01-1.36-1.51l-1.2-1.09a4 4 0 00-2.78-1.3 4.72 4.72 0 00-2.92 1.86q-13.2 14.51-37.95 45.29-4.6 5.65-13.24 16.93a176.58 176.58 0 01-12.05 14.74l-5.17 5.68a27.54 27.54 0 013.18 2.51q6.27 5.72 1.51 11l-.82.9-6-.86c-.1-.1-.45-.36-1-.81s-1.64-1.36-3.13-2.72q-5.06-4.05-6.4-5.28-13.09-11.88-9.01-16.36zm58.08 56.59a24.86 24.86 0 01-1.09-11.52 80 80 0 018.8-26.43 202 202 0 0113.13-23.08 33.16 33.16 0 012.4-3.26l2-3c.37-.56.5-.88.39-.95l2-3 8-11.69q3.75-5.28 12.75-16.29a70 70 0 0114.28-13.1A15.41 15.41 0 01281 791a7.13 7.13 0 015.38 1 34.71 34.71 0 0110.51 10.5 30.53 30.53 0 014.57 12.86 46.3 46.3 0 01-1.14 14.16 73.46 73.46 0 01-5.3 15.29 125.33 125.33 0 01-9.02 15.65l-.89 1.35q-3.47 5.22-6.09 9.54l-6.21 9.72q-32.19 48.52-54.77 33.54a15.81 15.81 0 01-6.21-8.15zm17.44 1.87a18.82 18.82 0 008.29-4.08 78.22 78.22 0 0016.17-16q6.56-8 10.69-14.27 5-7.57 12-20.66 7.59-13.65 11.84-20.05l2-3a22.06 22.06 0 003.08-14 14.65 14.65 0 00-6.56-11.15q-5.73-3.79-11.94 1.54-5.16 4.11-10.63 12.36c-1.42 2.14-2.55 4-3.41 5.51l-3 4.54-5.48 7.53q-2.69 3.32-5.48 7.53-6 9.09-11.45 18.36a176.76 176.76 0 00-13 26.83q-5.58 14.26-.35 17.73a9.43 9.43 0 007.23 1.28zm99.79 56.11a9.3 9.3 0 01-.11-4.9l.22-4 .14-.38.22-.56q2.34-6.26 3-47.46t-.14-61.4l-35.78 95.2.26 1.61c0 .3.12.84.26 1.61a3.9 3.9 0 01-.15 2.11 6 6 0 01-3.26 3.52 6.09 6.09 0 01-4.81.14q-6.06-2.28-1.72-13.82l12-32.44q5.28-14.64 12-32.63 2.28-6 7.19-17.39 5-11.7 7.18-17.38a17.71 17.71 0 0112.08-11.45l-.43 1.13a7.45 7.45 0 011.66.19q4.35 1.65 5.29 19.27a278.1 278.1 0 010 29.15q-.8 15-3.11 42.46l-.67 7.53q-1.39 17-1.62 24.44 19.08-39.27 39.92-94.72l.92-2.47a16.8 16.8 0 01.74-2.53q2.13-5.67 6.68-4a5 5 0 013.28 3.61 9.79 9.79 0 01-.57 5.84l-5.33 14.19q-11.34 29-26 62.37t-19 36.71a40.25 40.25 0 01-7.38-1 4.68 4.68 0 01-2.96-2.55zM388 981a7.68 7.68 0 01-2.06-5.65l2.73-3a14.53 14.53 0 013.67 1.4 25.29 25.29 0 004.5 1.33 8.76 8.76 0 007-2.16 20.42 20.42 0 005.63-7.7 67.89 67.89 0 005.33-16.76q2.1-13.18-4-29.09l-1.59-4.15q-2.75-7.18-4.51-12.8a70.13 70.13 0 01-2.61-11.88 53.65 53.65 0 01.08-16 48.36 48.36 0 016.93-17.73 19.06 19.06 0 016.88-6.58 13.29 13.29 0 018.75-1.57 11.11 11.11 0 016.32 3.36 6.8 6.8 0 012.22 6 3.3 3.3 0 01-1.84 2.57 5.78 5.78 0 01-3.56.46 8.2 8.2 0 01-4-1.87q-4.42-.51-8.23 6.67a40.77 40.77 0 00-4 11.23 40.3 40.3 0 00-.07 12 51.38 51.38 0 002.89 11.41l3.12 8.69 4.89 14.3a59 59 0 012.42 13.69 67.12 67.12 0 01-.69 15.25 51 51 0 01-9.28 22.27 23.32 23.32 0 01-9.32 7.73 20.17 20.17 0 01-11.83 1.59l-.09.6A13.11 13.11 0 01388 981zm80.92 8.85a16.68 16.68 0 01-6.34-6.1 51.94 51.94 0 01-6.48-19.14 149.68 149.68 0 01-1.67-22.22q-.85-21.84-1.2-53.37l-.38-15.57a28.17 28.17 0 01-.25-4c-.33-5.12-.49-8.22-.51-9.3q1.79-4.26 4.2-4.29t4.39 3.59a16.58 16.58 0 012 7.87l.62 55a214 214 0 001.7 21.37q1.6 16.56 1.66 21.41.17 15 12.9 14.82 14.57-.17 13.34-108.94l-.13-11.32v-1.82a5.31 5.31 0 01-.22-1.62 4.86 4.86 0 011.08-3.55c.73-.74 2.17-1.13 4.33-1.16a5.59 5.59 0 014.16 1.47 6.82 6.82 0 012 3.52 35.5 35.5 0 01.26 4.65q0 3.23-.49 10.32a75 75 0 00-.7 10.11 75.13 75.13 0 01-.31 8.3l-.31 8.49v1.62a7.75 7.75 0 01.22 1.82q1 89.78-25.08 90.06a17.66 17.66 0 01-8.79-2.02zm130.63-18.66a9.23 9.23 0 01-2.86-4l-2.1-3.44-.09-.39-.15-.59q-1.59-6.48-24.32-40.86t-34.84-50.56l24.32 98.75 1.12 1.18c.2.23.57.63 1.13 1.18a4 4 0 011.07 1.82 6.21 6.21 0 01-4.59 7.59q-6.24 1.57-9.24-10.41l-8.46-33.53q-3.93-15.06-8.52-33.72-1.54-6.29-3.9-18.4-2.46-12.51-3.91-18.41a17.68 17.68 0 013.49-16.27l.29 1.18a7.18 7.18 0 011.47-.78q4.51-1.11 15.26 12.9a277.94 277.94 0 0116.44 24.07q7.85 12.86 21.45 36.78l3.7 6.59q8.43 14.79 12.48 21.08-6.46-43.19-20.63-100.71l-.63-2.55a15.92 15.92 0 01-.83-2.5q-1.44-5.9 3.26-7.05a5 5 0 014.76 1.12 9.83 9.83 0 012.82 5.13l3.63 14.73q7.05 30.33 13.79 66.15t5.11 41a41.26 41.26 0 01-6.69 3.31 4.67 4.67 0 01-3.83-.39zm69.17-28.85l-3.58-7q-1.67-3-3.49-6.85l-2.78-6.29q-1.5-1.74-21.81-38.66T611.26 836q-10.77 4.69-14.55 4.25a4.52 4.52 0 01-3.58-2.32c-.46-1-.24-2.16.66-3.56a8.15 8.15 0 013.35-3.06c3.41-1.63 7.66-3.35 12.76-5.19a108.19 108.19 0 0012.85-5l1.46-.7 1.46-.7c3.76-1.79 6.35-1.23 7.74 1.68a4.73 4.73 0 01-.12 4.43 7.61 7.61 0 01-3.55 3.38 32.75 32.75 0 01-5 1.71l-4 1 .25 1 .25 1q7.75 16.25 27.84 50.35 18.85 32 27.65 50.43a5.43 5.43 0 01-.09 4.75 7.14 7.14 0 01-3.5 3.69zm53.08-24.47a6.34 6.34 0 01-4.42-2.4l-2.93-4.36-2.25-3.36a38.3 38.3 0 01-2.54-3.41q-2.37-3.52-7.72-10.4l-7.56-10.52q-5.52-8.22-16-24.84-9.15-15-15.8-25-1.57-2.34-5.24-6.71c-2.51-3-4.26-5.25-5.24-6.71q-8-11.91-1-16.65a55.06 55.06 0 0114.31-6.45c5.84-1.81 9.44-1.72 10.79.3a5.18 5.18 0 01.66 4.06 12.75 12.75 0 01-1.91 4.58 82.11 82.11 0 00-15 5.21c1.23 1.61 2.91 4 5 7.11q4.51 6.71 8 12.19 4.9 8.4 7.61 12.43l2.31 2.34 2.58-2a32.75 32.75 0 013.24-2.42q8.06-5.41 11.21-.72a4.69 4.69 0 01.58 4.12 7 7 0 01-3 3.85 30.11 30.11 0 01-4.92 2.83l-4.2 2.81q3.27 4.15 8.91 12.53t10 15.22q6.38 10.57 9.76 15.61 6.32 9.4 6.65 9.17l5.42-3.89q2.75-2.09 6.77-4.79 6.38-4.29 9.08-.26a4.78 4.78 0 01.33 5 11.81 11.81 0 01-4.27 4.7l-14.27 9.59a7.17 7.17 0 01-4.94 1.24zm69.2-63.46a110.08 110.08 0 01-19.27-11.66l-5.7-4.1q-23.91-17.28-27.84-19.16l-1.78 1.64q4 4.32 7.11 8l7.54 8.18q18.36 19.92 31.46 28.47l2.07 5.52-4.16 3.84-4-.45-9-10.1q-12.34-13.38-38.75-39.36-27.92-27.88-38.6-39.49-6.59-7.14-1.67-11.66 8-7.4 17-8t15.8 6.92l9.59 10.4a28.82 28.82 0 014 5.82 32.9 32.9 0 012.68 6.19l2.11 8 1.73 6.65 4 2.88 11.81 8.64q12.63 9.54 21.14 14.88A99.35 99.35 0 00795 845l2.54 1a15.6 15.6 0 015.87 3.38 5.5 5.5 0 011.51 3.43 4 4 0 01-1.35 3.31q-3.3 2.97-12.57-1.71zm-63.43-55.24a61.82 61.82 0 00-10.23-15.73 44.16 44.16 0 00-9.41-7.83 9.56 9.56 0 00-5.81-1.38 9.43 9.43 0 00-5.4 2.64l.38 1 .94 1.61 16.47 17.27q7.43 7.47 15.78 16.53 1.77-4.63-2.71-14.11zm132.95-18.42a9.23 9.23 0 01-4.75-1.2l-3.77-1.27-.33-.24-.49-.35q-5.4-3.91-45-15.51t-59.24-16.13l82.32 59.73 1.62.18c.3 0 .84.1 1.62.17a3.83 3.83 0 012 .7 6.2 6.2 0 011.4 8.75q-3.81 5.25-13.79-2L794 793.44q-12.72-9-28.27-20.26-5.24-3.79-14.86-11.54-10-8-14.87-11.53a17.69 17.69 0 01-7.84-14.68l1 .71a6.28 6.28 0 01.62-1.54q2.73-3.76 20 0a277.6 277.6 0 0128.09 7.77q14.29 4.74 40.13 14.25l7.07 2.63q16 5.87 23.14 8-32.8-28.8-80.76-63.59l-2.13-1.55a14.94 14.94 0 01-2.24-1.38c-3.28-2.37-4-4.87-2.07-7.49a5 5 0 014.36-2.21 9.78 9.78 0 015.47 2.1l12.28 8.9q25 18.61 53.23 41.63t30.38 28a40.54 40.54 0 01-3 6.84 4.69 4.69 0 01-3.21 2.25zm35.16-57.49a6.31 6.31 0 01-5 .23l-4.77-2.22-3.66-1.71a39.77 39.77 0 01-3.95-1.56q-3.84-1.8-12-4.92l-11.9-5.1q-9-4.18-26.5-13-15.6-8.17-26.42-13.21c-1.7-.8-4.36-1.81-8-3s-6.36-2.3-7.95-3q-13-6.06-9.43-13.76a55.34 55.34 0 018.99-13.01q6.1-6.86 9.4-5.32a5.22 5.22 0 012.66 3.13 12.65 12.65 0 01.73 4.91 81.63 81.63 0 00-10.16 12.23q2.84 1.1 8 3.48 7.34 3.42 13.11 6.34 8.55 4.65 12.94 6.7l3.19.82 1.18-3a35.57 35.57 0 011.53-3.75q4.1-8.81 9.23-6.41a4.68 4.68 0 012.62 3.23 7 7 0 01-.59 4.86 29.31 29.31 0 01-2.76 5l-2.17 4.47q4.93 1.86 14.1 6.13t16.41 7.87q10.92 5.76 16.42 8.32 10.26 4.79 10.43 4.42l2.64-6.13c.84-2.13 2-4.67 3.32-7.6q3.24-7 7.64-4.91a4.77 4.77 0 012.87 4.12 11.67 11.67 0 01-1.23 6.23l-7.26 15.58a7.11 7.11 0 01-3.66 3.54zm1.15-98.88l-11-3.42-8.88-2.8-.58-.17-1.94-.57a33.11 33.11 0 00-3.63-1.27 1.71 1.71 0 00-1.14.3 1.6 1.6 0 01-1.14.3l-.2-.06a11.09 11.09 0 01-.63 3.61 31.86 31.86 0 01-2.59 6c-.35.74-1.28 2.71-2.78 5.93l22.32 6.51q5.05 1.47 16.09 4.06 10.85 2.52 16.09 4.05a8.72 8.72 0 014.59 3 5 5 0 011 4.7q-1.08 3.69-8.71 3.15a100 100 0 01-19.7-4.04l-15.61-5q-6.54-2.12-13.92-4.27l-3.3-1-2.72-.8a27.61 27.61 0 00-4.13-1l-1-.28-11.09-3.87q-7.38-2.14-22.1-5.81T798 625.89a6.15 6.15 0 01-3.62-2.74 5.17 5.17 0 01-.62-4.39q1.82-6.21 13.46-2.82l24 7.41q10.75 3.57 24.15 7.47 1.82-2.64 4-10.2l2.09-7.19a7.55 7.55 0 00-2.22-1.06q-9.32-2.72-27.9-6.88-17.48-3.62-28.15-6.73a4.81 4.81 0 01-3.11-2.7 6.05 6.05 0 01-.3-4.4 12.58 12.58 0 012.1-3.6l1.29-1.52q27.57 8 74.14 19.51l49.61 12.58a5.28 5.28 0 013.68 3.28 8 8 0 01.17 5.21q-1.91 6.6-33.94-2.74zm49.02-122.5l-12.91-.88-12.94-.83q-10.1-.68-26.53-.34-18.46.39-25.32-.06l-12.48-1.23q-5.43-.77-12.28-1.22 2.57 1 27.4 8.5 24 7.47 44.39 15.1 19.56 7.38 19.31 11.21a8.31 8.31 0 01-2.72 6 8.58 8.58 0 01-6.51 1.9q-8.88-.59-38.21 4.66T839 554.58l22.72 2.72q28.74 3.53 47.87 5.4 18.54 1.63 25.39 2.09a22 22 0 003 0l2.83.19a7.94 7.94 0 015 1.75c1.08 1 1.53 2.81 1.37 5.36a5.9 5.9 0 01-1.77 3.73 4.33 4.33 0 01-3.45 1.6q-20.58-1.36-61.54-7.12T819 563.18a6.88 6.88 0 01-3.92 1 4.11 4.11 0 01-3.58-2.56 11.21 11.21 0 01-.94-5.64q.18-2.62 19.61-8.43t43.91-11.27q24.48-5.47 35.3-6.78-5.34-2-9.91-3.29l-4.76-1.53q-27.83-8.32-50.19-16.3a148.15 148.15 0 01-21.3-8.91q-8.22-4.19-8-7.22a9.21 9.21 0 011.86-5 4.53 4.53 0 014.08-2.06q14.53 1 43.66 1.68 27.13.38 42.06 1.37l10.68.91 10.67 1.11a63.28 63.28 0 007.3-.12l7.1-.14 2.85-.11h1.21a12.44 12.44 0 013.91-.76 9.66 9.66 0 015.91 2.42 6 6 0 012.31 5q-.46 6.17-12.97 5.33zm-1.17-61.06a6.27 6.27 0 01-4.1 2.9l-5.21.71-4 .54a39 39 0 01-4.19.77q-4.2.57-12.74 2.33l-12.77 2.14q-9.81 1.32-29.33 3.35-17.55 1.56-29.37 3.15c-1.87.26-4.64.84-8.33 1.74s-6.6 1.51-8.34 1.74q-14.22 1.94-15.36-6.49a54.85 54.85 0 01.53-15.68q1.42-9.07 5-9.56a5.23 5.23 0 013.94 1.21 12.48 12.48 0 013.26 3.74 82.54 82.54 0 00-2 15.77q3-.6 8.59-1.37a496.9 496.9 0 0114.46-1.75q9.69-.69 14.51-1.35l3.12-1-.63-3.18a33.7 33.7 0 01-.75-4q-1.29-9.61 4.31-10.38a4.69 4.69 0 013.95 1.3 7 7 0 012.13 4.41 29.83 29.83 0 01.36 5.66l.68 5q5.16-1.09 15.17-2.46t18.06-2.23Q918 436.78 924 436q11.22-1.51 11.16-1.92l-1.09-6.58q-.66-3.37-1.31-8.19-1-7.61 3.78-8.26a4.77 4.77 0 014.64 1.92 11.72 11.72 0 012.33 5.91l2.31 17a7.14 7.14 0 01-1.14 4.94zm-29.07-117.67a9.34 9.34 0 01-3.74 3.16l-3.27 2.36-.38.13-.58.19q-6.33 2.1-38.83 27.46t-47.67 38.69l96.54-32 1.09-1.21c.22-.21.58-.62 1.09-1.22a4 4 0 011.73-1.21 6.22 6.22 0 017.92 4q2 6.15-9.67 10l-32.76 11.07q-14.72 5.09-33 11.13-6.14 2-18 5.34-12.29 3.43-18 5.34a17.69 17.69 0 01-16.49-2.2l1.15-.39a6.47 6.47 0 01-.89-1.4q-1.47-4.42 11.66-16.22a277.23 277.23 0 0122.7-18.28q12.2-8.83 35-24.27l6.27-4.21q14.09-9.57 20-14.09-42.54 9.82-98.78 28.47l-2.49.82a17.07 17.07 0 01-2.43 1q-5.76 1.91-7.29-2.7a4.94 4.94 0 01.75-4.82 9.81 9.81 0 014.89-3.22l14.4-4.77q29.69-9.42 64.87-18.94t40.49-8.31a40.57 40.57 0 013.82 6.4 4.7 4.7 0 01-.1 3.9z" stroke="#fff" fill="#fff"/><path class="cls-2" d="M300.65 253.34c-25.07 6.72-46.49 25.53-53.11 51.11-3.26 12.59-3 26.41 1.94 38.52 5.43 13.34 15.86 21.86 29.19 26.8 22.83 8.49 50.59 2.82 68.16-14 16.76-16.1 23.75-42.73 16-64.81-4.39-12.51-12.58-23.52-23.91-30.54-11.5-7.14-24.71-8.68-37.87-6.75-5.61.83-8.7 7.93-7.33 12.92 1.65 6 7.28 8.16 12.91 7.33 14.67-2.15 27.75 6 34.44 19.18 7 13.73 4.25 31.65-5.17 43.58-10.1 12.81-28 18.46-43.83 15.14-7.86-1.65-16.46-5-20.89-12.1-4.53-7.28-5.64-16.5-4.41-24.89 3.06-20.84 19.76-35.91 39.46-41.19 13-3.49 7.51-23.75-5.58-20.25zm334.48-5.45c-22.76-1.66-47.7 6.18-60.88 25.8-7.38 11-9.55 25.61-9.48 38.59.07 13.41 4.18 26.43 13.87 36 20.09 19.88 50.39 18.28 74.05 6.22 11.58-5.91 23.16-14.35 29.8-25.77 6.43-11.07 7.85-24.16 5.51-36.6-5.45-29.07-34.62-46.93-62.88-46-13.48.46-13.54 21.46 0 21 16.42-.56 34.27 7.13 40.65 23.27a33.74 33.74 0 01.56 23.53c-3 8.31-10.27 14.06-17.51 18.57-15.35 9.57-36 15.22-52 3.77A26.4 26.4 0 01586 317.39c-1.09-9.3 0-21.25 4.32-29.66 8.24-15.81 28.32-20 44.81-18.84 5.66.41 10.5-5.13 10.5-10.5 0-6-4.82-10.09-10.5-10.5z"/><path class="cls-2" d="M400.75 342c-8.92 13.81-22.11 24.67-36.62 32.21-15.62 8.12-33.39 11-50.8 11.87-17.07.83-34.18-.28-51.1 2.74s-31.54 11.38-41.55 25.3c-9.31 13-12.81 29.05-14.7 44.59-2.23 18.36-2.24 37.13-2 55.59q.23 15.1 1.18 30.18c.55 8.7 1.15 17.47 4.65 25.56 3.67 8.49 11.09 15.89 20.68 16.75 8.48.76 15.58-4 20.06-10.91 5.14-8 6.21-18 7.66-27.16 1.8-11.4 3.26-22.86 4.3-34.35a482.77 482.77 0 001.38-67.37c-.66-13.45-21.67-13.53-21 0 1.75 35.92-.21 72.18-6.85 107.56a36.69 36.69 0 01-2.31 8.57c-.16.35-1 1.89-1.2 2.11-.3.43-1 1.19-1.22 1 1.46.88-1-2.23-.68-1.78-2-2.72-2.79-5.86-3.41-9.13-1.46-7.64-1.37-15.78-1.7-23.53q-.61-14.11-.58-28.24c0-15.68 0-31.79 2.39-47.32 1.93-12.42 5.43-25.64 14.43-34.9 9.32-9.59 22.8-12.49 35.69-13.39 15.84-1.1 31.72-.12 47.54-1.78 18.94-2 37.41-6.59 54-16.2a117.35 117.35 0 0039.88-37.4c7.35-11.39-10.82-21.93-18.14-10.6z"/><path class="cls-2" d="M242.7 502.84q3 40.52 3.33 81.16c.16 25.68-1.42 51.33-1.32 77a225.65 225.65 0 003 37.7c1.91 11 4.6 23.32 11.84 32.17a22.4 22.4 0 0031.77 3.42C302 725.92 303 712.34 303.7 699.8c1.4-25.53.41-51.12 1.84-76.65a252.08 252.08 0 014.59-37.44 41.1 41.1 0 011.2-5.16c.24-.69 4.55 10.43.84-1.2.11.34-.48-.78-.44-.4 0 .13-.89-.49-1-.51-1-.31.37 1 .18.29a49.2 49.2 0 011.18 5.18c1.08 12.26 1 24.67 1.91 37 1 12.9 2.19 25.77 3.64 38.62 1.47 13 3.16 26 4.95 39 1.66 12 1.68 25.78 10.7 35a25.44 25.44 0 0034.9 1.72c7.86-6.8 10.1-17 11.3-26.8a187.28 187.28 0 001-26.48c-.11-5.22.11-10.87-1-16-2.19-10.24-17.77-9.76-20.25 0-1 4.09-1.06 13.18 1.23 17 4.73 7.81 16.6 6.17 19.19-2.51.89-3 .43-6.73.42-9.76q0-9.27-.16-18.54c-.23-18.55-.61-37.11-1.24-55.65-.58-17.29-1.14-34.65-3-51.86-1.65-15.46-3.84-31-1.89-46.59 1.83-14.64 6.93-29 13.91-41.91 8.01-14.77 18.6-28.15 28.3-41.71 9.19-12.82 19.3-25.38 32.47-34.32 4.69-3.19 6.77-9.24 3.77-14.37-2.72-4.65-9.65-7-14.37-3.77-13.11 8.91-23.62 20.16-33.22 32.68-9.2 12-18.1 24.47-26.6 37-18.37 27-27.88 58.79-25.52 91.48 1.47 20.31 3.87 40.39 4.71 60.75.8 19.54 1.26 39.08 1.56 58.63q.19 12.4.28 24.83v7.2c0 2.28-1 4.74.33.31l19.19-2.51c2.54 4.19 1.44 7 1.35 2.72v-2.6c0-1.87.88-6-.42-.9h-20.24c-1.11-5.2-.23-1.21-.14.39.16 2.67.26 5.35.33 8 .2 7.21.18 14.44-.31 21.63a72.71 72.71 0 01-.92 8.3c-.55 3-1.16 6.33-3.08 8.81a9.89 9.89 0 01-1.5 1.44c-.22.14-1.44.54-1.42.55-3.69-.3-5.54-3.46-6.32-6.77-2.72-11.45-3.49-23.77-5-35.45-1.52-12-2.9-23.93-4.07-35.93q-1.69-17.41-2.72-34.89c-.61-10.62.44-22.39-2.42-32.72s-11.17-18.32-22.38-16.52c-12.21 2-17.7 12.66-19.87 23.65-4.8 24.24-5.6 49-5.83 73.6-.12 12.15-.14 24.3-.61 36.44a168.3 168.3 0 01-1 16.81c-.35 2.49-1.34 9.31-4.89 9.72-.93.11-1.82-1.46-2.59-2.72-2.51-4.11-3.59-9.16-4.72-13.81a159.59 159.59 0 01-4-33.67c-.74-26.8 1.31-53.65 1.23-80.46q-.14-42.6-3.35-85.12c-.42-5.65-4.52-10.5-10.5-10.5-5.35 0-10.93 4.82-10.5 10.5zM514.94 359c8.8 13.18 19.65 26 34.37 32.69 16.42 7.47 34.17 7 51.68 4.73 17.79-2.34 35.37-4.87 53.34-5.31 13.48-.34 30-1 39.39 10.5 7.81 9.6 9.49 23.58 10.71 35.48 1.9 18.51 3.6 37.05 5.4 55.58s4.63 37.74 2.08 56.36c-.71 5.24-1.86 14.37-7.65 16.68a5.64 5.64 0 01-2 .41s-1.61-.6-1-.34c.23.1.89.65-.07-.12-1.74-1.4-2.41-3.24-3.15-5.59-2.54-8.06-2.73-16.24-3.49-25q-1.35-15.52-1.83-31.1a573.27 573.27 0 011.64-64.21c.45-5.66-5.16-10.5-10.5-10.5-6.06 0-10 4.83-10.5 10.5a577.47 577.47 0 00-1.7 62.26c.54 19.29 1.11 39.46 4.84 58.44 1.46 7.41 4.5 15.31 10.28 20.43a24.16 24.16 0 0026.83 3.53c18.68-8.87 20.26-33.84 20.16-51.82-.11-20.59-3.08-41.25-5.06-61.72-1.79-18.36-2.44-37.34-6.52-55.38-3.54-15.66-11.62-31.36-26.52-38.87-17-8.55-37.43-7.13-55.82-5.87-21.08 1.43-42.31 7.19-63.49 6.17-19.56-.93-32.86-12.93-43.29-28.56-3.14-4.71-9.26-6.75-14.36-3.77-4.68 2.74-6.93 9.63-3.77 14.37z"/><path class="cls-2" d="M676 563.44c-1 20.6 0 41.19.76 61.78s.13 40.51-1.14 60.91c-.51 8.29.56 17.71-1.49 25.78-1.1 4.35-6.27 9.41-10.58 9.89.94-.1-3 0-2-.11-.63 0-1.12-.83 0 .34-2.21-2.3-2.86-7.12-3.32-10.33-1.26-8.77-2-17.67-2.94-26.47-2.31-20.94-4.43-41.91-6.06-62.92-.82-10.49-1.6-21-2.63-31.47-.79-8.09-1.37-16.49-6.65-23.1-5.85-7.34-15.68-8.89-23.92-4.68-6.62 3.39-11.69 10.12-15.12 16.57-9.14 17.22-7.92 36.49-5.82 55.22 1.28 11.51 2.28 23 2.58 34.63.15 5.89.14 11.78-.08 17.66-.11 2.94-.26 5.87-.48 8.8 0 .67-.1 1.35-.16 2-.32 3.45.39-1.92-.21 1.62a53.11 53.11 0 01-2.74 10.27 37.54 37.54 0 01-3.28 5.94c-.48.58-1 1.1-1.52 1.63-.31.31-1.92 1.55-.86.8-1.8 1.27-1.27 1-3 1.47-2.65.66-5.54.08-8.78-1.84-11.66-6.9-22.23 11.25-10.6 18.13 15.93 9.43 34.39 4.38 43.95-11.16 9-14.54 9-32.95 8.87-49.43-.08-11.12-.78-22.23-1.9-33.3-1-9.46-2.34-18.91-2.42-28.44-.08-8.39.93-16.89 5.1-24.33a25.31 25.31 0 015.15-6.88c-.08.08 1.35-1.39 1.63-1 .13.21-2.36-.38-2.45-.39-.71-.14-.69-2.17 0 .21a53.94 53.94 0 011.41 6.62c.53 5.56 1.06 11.13 1.52 16.7.89 10.82 1.66 21.65 2.59 32.47 1.94 22.31 4.51 44.56 7 66.82 1 9.18 1.47 18.52 5.88 26.86 4.28 8.1 12.45 12.39 21.55 12 9.49-.44 16.64-4.91 22.83-11.85 6.6-7.42 8.47-15.06 9.09-24.79 1.46-23.08 3-46.21 2.4-69.35-.63-24.44-2.33-48.84-1.13-73.29.67-13.51-20.33-13.47-21 0z"/><path class="cls-2" d="M578.42 718.16c-6.14-8.69-7.52-19.08-8.61-29.42q-2.05-19.53-3.14-39.16c-1.5-26.48-1.79-53-1.23-79.54.55-25.95 2.66-51.8 3.56-77.73.83-23.87-3.59-46.7-18-66.22s-33.75-34-53.26-47.94c-4.61-3.3-11.69-.81-14.36 3.77-3.09 5.28-.86 11.05 3.76 14.36 16 11.47 32.44 23.44 44.7 39.07a74.75 74.75 0 0113 24.19c3.5 11.56 3.57 23.62 3 35.58-1.14 25.31-3 50.55-3.47 75.9-.53 25.86-.24 51.75 1.2 77.58.79 14.33 1.91 28.65 3.49 42.91 1.44 13 3.45 26.3 11.18 37.25 3.26 4.62 9.17 6.8 14.36 3.76 4.58-2.67 7.06-9.71 3.77-14.36zm-100.7-465.37C484.65 241.91 498 235.2 511 237c14.36 1.93 21.68 15.09 21.16 28.68-.63 16.55-11.35 31.21-22.15 42.93-12.57 13.65-26.6 26.08-40.93 37.83-4.39 3.6-3.73 11.12 0 14.85 4.34 4.34 10.45 3.61 14.85 0A429.6 429.6 0 00522.4 326c12-12.57 22.81-26.87 27.93-43.7 4.67-15.38 3.8-33.2-5.44-46.79A45.32 45.32 0 00503 215.92a57.11 57.11 0 00-43.45 26.27c-7.28 11.43 10.88 22 18.14 10.6z"/><path class="cls-2" d="M477.73 240.9c-18.42-28.19-60.84-33-82.66-5.88-11.07 13.77-15.14 31.32-10.07 48.43 5 16.83 16.36 31 29.23 42.56C430.16 340.34 448 352.7 465 365.66c4.51 3.44 11.75.71 14.36-3.76 3.16-5.4.76-10.93-3.76-14.37-12.24-9.31-24.67-18.43-36.67-28-10.44-8.36-20.87-17.47-27.89-29-6.21-10.18-9.87-22.21-5.1-33.68 4-9.67 13-17.56 23.5-18.94 11.33-1.49 23.75 3.88 30.12 13.62 7.37 11.27 25.56.76 18.13-10.6zm22.33 26.68c-2.32-.29-.36.13.18.27.72.25.54.18-.53-.2l.75.44.73.48c-.86-.67-1-.75-.45-.25.27.38 1.49 2 .35.19.32.49.62 1 .92 1.49 1.14 1.92 0-.83.1.3s.17 1.6.17.19a22.62 22.62 0 01-.12 2.6c-.63 5.48 5.28 10.74 10.5 10.5 6.23-.28 9.83-4.63 10.5-10.5.76-6.55-1.95-13.06-6.1-18-4.42-5.26-10.35-7.68-17-8.5-5.47-.68-10.73 5.31-10.5 10.5.28 6.26 4.64 9.77 10.5 10.5z"/><circle class="cls-3" cx="121.81" cy="268.89" r="8.5"/><circle class="cls-3" cx="825.31" cy="267.89" r="8.5"/></g></g></svg>