<svg xmlns="http://www.w3.org/2000/svg" viewBox="0 0 50.51 48.81"><defs><clipPath id="clip-path"><path fill="none" d="M0 0h50.51v48.81H0z"/></clipPath></defs><g id="Ebene_2" data-name="Ebene 2"><g clip-path="url(#clip-path)" id="Ebene_1-2" data-name="Ebene 1"><path d="M18.86 24.37v7.52a1.55 1.55 0 00.86 1.49 1.69 1.69 0 001.73-.11l12.41-7.5a1.53 1.53 0 000-2.76c-1.51-.94-3.05-1.85-4.57-2.78-2.63-1.58-5.27-3.16-7.89-4.77a1.65 1.65 0 00-2.57 1.39v7.52m31.63.3a23.74 23.74 0 01-7.25 16.76A25.41 25.41 0 0126 48.78h-1c-1.22-.11-2.41-.17-3.59-.33A25.28 25.28 0 0113.52 46a24.64 24.64 0 01-10-9.25A23.41 23.41 0 01.2 21.28a22.77 22.77 0 012.54-8 24.58 24.58 0 018.08-8.94A25.41 25.41 0 0121.71.23L23.43 0h3.51c.13 0 .26.07.39.09 1.13.16 2.27.25 3.38.49A24.89 24.89 0 0142 6.2a23.92 23.92 0 017.64 12.14 25.91 25.91 0 01.83 5.75z" fill="#938fc0"/></g></g></svg>